<?xml version="1.0" encoding="utf-8"?>
<!-- Generator: Adobe Illustrator 23.0.3, SVG Export Plug-In . SVG Version: 6.00 Build 0)  -->
<svg version="1.1" id="Layer_1" xmlns="http://www.w3.org/2000/svg" xmlns:xlink="http://www.w3.org/1999/xlink" x="0px" y="0px"
	 viewBox="0 0 485 437" style="enable-background:new 0 0 485 437;" xml:space="preserve">
<style type="text/css">
	.st0{fill:#615D87;stroke:#000000;stroke-width:1.0007;stroke-miterlimit:10;}
	.st1{fill:#474AFE;stroke:#000000;stroke-width:1.0007;stroke-miterlimit:10;}
	.st2{fill:none;stroke:#000000;stroke-width:1.0007;stroke-miterlimit:10;}
	.st3{fill:#FFFFFF;}
	.st4{clip-path:url(#SVGID_2_);}
	.st5{clip-path:url(#SVGID_5_);}
	.st6{fill:none;}
	.st7{clip-path:url(#SVGID_8_);}
	.st8{clip-path:url(#SVGID_11_);}
	.st9{fill:#AC6AFF;stroke:#000000;stroke-width:1.0007;stroke-miterlimit:10;}
	.st10{fill:#474465;stroke:#FFFDF5;stroke-width:1.0007;stroke-miterlimit:10;}
	.st11{stroke:#FFFDF5;stroke-width:1.0007;stroke-miterlimit:10;}
	.st12{stroke:#000000;stroke-width:1.0007;stroke-miterlimit:10;}
	.st13{fill:#E839CC;stroke:#000000;stroke-width:1.0007;stroke-miterlimit:10;}
	.st14{fill:#FFFDF5;stroke:#000000;stroke-width:1.0007;stroke-miterlimit:10;}
	.st15{fill:#BA75FF;stroke:#000000;stroke-width:1.0007;stroke-miterlimit:10;}
	.st16{fill:#BBE41E;stroke:#000000;stroke-width:1.0007;stroke-miterlimit:10;}
	.st17{fill:#FFA6E2;stroke:#000000;stroke-width:1.0007;stroke-miterlimit:10;}
	.st18{fill:#15131D;stroke:#000000;stroke-width:1.0007;stroke-miterlimit:10;}
	.st19{fill:#615D87;stroke:#000000;stroke-width:1.0007;stroke-linejoin:round;stroke-miterlimit:10;}
	.st20{fill:url(#SVGID_13_);stroke:#000000;stroke-width:1.0007;stroke-miterlimit:10;}
	.st21{fill:#FFFFFF;stroke:#000000;stroke-width:1.0007;stroke-miterlimit:10;}
	.st22{fill:#858DFF;stroke:#000000;stroke-width:1.0007;stroke-miterlimit:10;}
	.st23{fill:#AC6AFF;stroke:#000000;stroke-width:1.0007;stroke-linejoin:round;stroke-miterlimit:10;}
</style>
<path d="M235.7,245.9c8.7-5,15.7-17.2,15.7-27.2l-0.3-93.3c0-10-7.1-14-15.8-9L154,163.3c-8.7,5-15.7,17.2-15.7,27.2l0.3,82.6
	c0,10,7.1,14,15.8,9L235.7,245.9z"/>
<path d="M267.5,245.5c-8.7-5-15.7-17.2-15.7-27.2l0.3-93.3c0-10,7.1-14,15.8-9l18.5,10.6v3.5l33.3,20.3l3.8-2.2l25.7,14.8
	c8.7,5,15.7,17.2,15.7,27.2l-0.3,82.6c0,10-7.1,14-15.8,9L267.5,245.5z"/>
<path d="M267.4,223.2h-29.6v33.2h29.6V223.2z"/>
<path d="M348.1,292.9L266.8,246c-8.7-5-22.8-5-31.4,0l-80.8,46.9c-8.7,5-8.6,13.2,0.1,18.2l81.3,46.9c6.4,3.7,16.6,4,22.7,2.9
	c2.9-0.5,3.9-1.1,4.7-1.3l3.8-1.6l81-46.8C356.8,306,356.8,297.9,348.1,292.9z"/>
<path class="st0" d="M235.7,227.8c8.7,5,15.7,17.2,15.7,27.2l-0.3,93.3c0,10-7.1,14-15.8,9L154,310.4c-8.7-5-15.7-17.2-15.7-27.2
	l0.3-93.3c0-10,7.1-14,15.8-9L235.7,227.8z"/>
<path class="st1" d="M267.1,227.8c-8.7,5-15.7,17.2-15.7,27.2l0.3,93.3c0,10,7.1,14,15.8,9l81.3-46.9c8.7-5,15.7-17.2,15.7-27.2
	l-0.3-93.3c0-10-7.1-14-15.8-9L267.1,227.8z"/>
<path class="st0" d="M348.1,162.2l-81.3-46.9c-8.7-5-22.8-5-31.4,0l-80.8,46.9c-8.7,5-8.6,13.2,0.1,18.2l81.3,46.9
	c8.7,5,22.8,5,31.4,0l80.8-46.9C356.8,175.4,356.8,167.3,348.1,162.2z"/>
<path d="M238.6,248.2c1.2-0.7,1.2-3,0-5.1c-1.2-2.1-3.2-3.2-4.4-2.5c-1.2,0.7-1.2,3,0,5.1C235.4,247.8,237.4,248.9,238.6,248.2z"/>
<path d="M238.6,346.4c1.2-0.7,1.2-3,0-5.1c-1.2-2.1-3.2-3.2-4.4-2.5c-1.2,0.7-1.2,3,0,5.1C235.4,345.9,237.4,347.1,238.6,346.4z"/>
<path d="M153.1,197.7c1.2-0.7,1.2-3,0-5.1c-1.2-2.1-3.2-3.2-4.4-2.5c-1.2,0.7-1.2,3,0,5.1C149.9,197.3,151.9,198.4,153.1,197.7z"/>
<path d="M153.1,295.8c1.2-0.7,1.2-3,0-5.1c-1.2-2.1-3.2-3.2-4.4-2.5c-1.2,0.7-1.2,3,0,5.1C149.9,295.4,151.9,296.5,153.1,295.8z"/>
<path class="st2" d="M238.6,248.2c1.2-0.7,1.2-3,0-5.1c-1.2-2.1-3.2-3.2-4.4-2.5c-1.2,0.7-1.2,3,0,5.1
	C235.4,247.8,237.4,248.9,238.6,248.2z"/>
<path class="st2" d="M238.6,346.4c1.2-0.7,1.2-3,0-5.1c-1.2-2.1-3.2-3.2-4.4-2.5c-1.2,0.7-1.2,3,0,5.1
	C235.4,345.9,237.4,347.1,238.6,346.4z"/>
<path class="st2" d="M153.1,197.7c1.2-0.7,1.2-3,0-5.1c-1.2-2.1-3.2-3.2-4.4-2.5c-1.2,0.7-1.2,3,0,5.1
	C149.9,197.3,151.9,198.4,153.1,197.7z"/>
<path class="st2" d="M153.1,295.8c1.2-0.7,1.2-3,0-5.1c-1.2-2.1-3.2-3.2-4.4-2.5c-1.2,0.7-1.2,3,0,5.1
	C149.9,295.4,151.9,296.5,153.1,295.8z"/>
<path class="st3" d="M314.7,197.6l-126.5,0l14.4,8.3h97.9L314.7,197.6z"/>
<path class="st3" d="M218,214.7l18.7,10.8c8.3,4.8,21.7,4.8,30,0l18.5-10.8H218z"/>
<g>
	<defs>
		
			<ellipse id="SVGID_1_" transform="matrix(0.8643 -0.5031 0.5031 0.8643 -108.2181 134.3042)" cx="194.7" cy="267.7" rx="41.4" ry="71.4"/>
	</defs>
	<clipPath id="SVGID_2_">
		<use xlink:href="#SVGID_1_"  style="overflow:visible;"/>
	</clipPath>
	<g class="st4">
		<g transform="matrix(0.0358846 0.0616998 -0.0357706 0.0207709 194.745 267.671)">
			<g>
				<g>
					<g>
						<defs>
							<polygon id="SVGID_3_" points="-1023.2,-1023.2 -1022.2,-1023.2 -1023.2,-1022.2 							"/>
						</defs>
						<defs>
							<polygon id="SVGID_4_" points="-1025.2,-1025.2 -1026.2,-1025.2 -1025.2,-1026.2 							"/>
						</defs>
						<clipPath id="SVGID_5_">
							<use xlink:href="#SVGID_3_"  style="overflow:visible;"/>
						</clipPath>
						<clipPath id="SVGID_6_" class="st5">
							<use xlink:href="#SVGID_4_"  style="overflow:visible;"/>
						</clipPath>
					</g>
				</g>
			</g>
		</g>
	</g>
</g>
<path class="st6" d="M230.6,329.4c19.8-11.5,19.7-48.4-0.1-82.5c-19.8-34.1-51.9-52.4-71.7-40.9c-19.8,11.5-19.7,48.4,0.1,82.5
	C178.8,322.5,210.9,340.8,230.6,329.4z"/>
<g>
	<defs>
		<path id="SVGID_7_" d="M230.1,247.2c9.9,17,14.8,34.6,14.8,49.5c0,14.8-4.9,26.7-14.5,32.3l0.5,0.9c10.1-5.9,15.1-18.2,15-33.2
			c0-15-5-32.9-15-50L230.1,247.2z M230.4,328.9c-9.7,5.6-22.4,4-35.3-3.4c-12.9-7.4-25.8-20.4-35.7-37.4l-0.9,0.5
			c9.9,17.1,23,30.3,36,37.7c13,7.5,26.2,9.2,36.3,3.4L230.4,328.9z M159.4,288.2c-9.9-17-14.8-34.6-14.8-49.5
			c0-14.8,4.9-26.7,14.5-32.3l-0.5-0.9c-10.1,5.9-15.1,18.2-15,33.2c0,15,5,32.9,15,50L159.4,288.2z M159.1,206.4
			c9.7-5.6,22.4-4,35.3,3.4c12.9,7.4,25.8,20.4,35.7,37.4l0.9-0.5c-9.9-17.1-23-30.3-36-37.7c-13-7.5-26.2-9.2-36.3-3.4L159.1,206.4
			z"/>
	</defs>
	<clipPath id="SVGID_8_">
		<use xlink:href="#SVGID_7_"  style="overflow:visible;"/>
	</clipPath>
	<g class="st7">
		<g transform="matrix(0.0358846 0.0616998 -0.0357706 0.0207709 194.745 267.671)">
			<g>
				<g>
					<g>
						<defs>
							<polygon id="SVGID_9_" points="-1023.2,-1023.2 -1022.2,-1023.2 -1023.2,-1022.2 							"/>
						</defs>
						<defs>
							<polygon id="SVGID_10_" points="-1025.2,-1025.2 -1026.2,-1025.2 -1025.2,-1026.2 							"/>
						</defs>
						<clipPath id="SVGID_11_">
							<use xlink:href="#SVGID_9_"  style="overflow:visible;"/>
						</clipPath>
						<clipPath id="SVGID_12_" class="st8">
							<use xlink:href="#SVGID_10_"  style="overflow:visible;"/>
						</clipPath>
					</g>
				</g>
			</g>
		</g>
	</g>
</g>
<path class="st6" d="M230.1,247.2c9.9,17,14.8,34.6,14.8,49.5c0,14.8-4.9,26.7-14.5,32.3l0.5,0.9c10.1-5.9,15.1-18.2,15-33.2
	c0-15-5-32.9-15-50L230.1,247.2z M230.4,328.9c-9.7,5.6-22.4,4-35.3-3.4c-12.9-7.4-25.8-20.4-35.7-37.4l-0.9,0.5
	c9.9,17.1,23,30.3,36,37.7c13,7.5,26.2,9.2,36.3,3.4L230.4,328.9z M159.4,288.2c-9.9-17-14.8-34.6-14.8-49.5
	c0-14.8,4.9-26.7,14.5-32.3l-0.5-0.9c-10.1,5.9-15.1,18.2-15,33.2c0,15,5,32.9,15,50L159.4,288.2z M159.1,206.4
	c9.7-5.6,22.4-4,35.3,3.4c12.9,7.4,25.8,20.4,35.7,37.4l0.9-0.5c-9.9-17.1-23-30.3-36-37.7c-13-7.5-26.2-9.2-36.3-3.4L159.1,206.4z"
	/>
<path d="M196.4,318.7c-24.7-14.3-44.7-48.8-44.6-77.2c0-13.6,4.7-23.4,12.3-28.2c-9.3,4.1-15.2,14.4-15.3,29.8
	c-0.1,28.4,19.9,63,44.6,77.2c12.8,7.4,24.4,7.9,32.6,2.6C218.1,326.3,207.7,325.2,196.4,318.7z"/>
<path class="st9" d="M202.9,284.5c5.5-3.2,5.5-13.4,0-22.9c-5.5-9.5-14.4-14.5-19.9-11.4c-5.5,3.2-5.5,13.4,0,22.9
	C188.5,282.6,197.4,287.6,202.9,284.5z"/>
<path class="st10" d="M327.8,173.2l-22,12.8l-27.2-15.7l27-15.7l22.2,12.8C330.1,168.6,330.1,171.9,327.8,173.2z"/>
<path class="st10" d="M278.8,201.6l-20.3,11.8c-4.2,2.4-9.3,2.4-13.5,0l-20.5-11.8l27-15.7L278.8,201.6z"/>
<path class="st10" d="M251.6,185.9l-27,15.7l-27.2-15.7l27-15.7L251.6,185.9z"/>
<path class="st11" d="M278.6,170.2l-27,15.7l-27.2-15.7l27-15.7L278.6,170.2z"/>
<path class="st10" d="M305.6,154.5l-27,15.7l-27.2-15.7l27-15.7L305.6,154.5z"/>
<path class="st10" d="M224.3,170.2l-27,15.7l-22.2-12.8c-2.2-1.3-2.2-4.5,0-5.8l22-12.8L224.3,170.2z"/>
<path class="st11" d="M251.4,154.6l-27,15.7l-27.2-15.7l27-15.7L251.4,154.6z"/>
<path class="st10" d="M278.4,138.8l-27,15.7l-27.2-15.7l20.3-11.8c4.2-2.4,9.3-2.4,13.5,0L278.4,138.8z"/>
<path class="st11" d="M305.8,185.9l-27,15.7l-27.2-15.7l27-15.7L305.8,185.9z"/>
<path class="st12" d="M285.3,248c-2.1,1.2-3.8,3.9-4.3,6.4l-1,5.8c-0.2,1.1-1,2.3-1.9,2.8l-2.8,1.6c-2.2,1.3-3.9,4.3-3.9,6.8
	l0.1,56.9c0,2.5,1.8,3.5,4,2.3l31.8-18.4l36.6-21.1c2.2-1.3,4-4.3,3.9-6.8l-0.1-56.9c0-2.5-1.8-3.5-4-2.3l-31,17.9
	c-0.9,0.5-1.7,0.3-1.9-0.6l-1-4.6c-0.5-2-2.2-2.7-4.3-1.5L285.3,248z"/>
<path class="st13" d="M286.5,249c-2.1,1.2-3.8,3.9-4.3,6.4l-1,5.8c-0.2,1.1-1,2.3-1.9,2.8l-2.8,1.6c-2.2,1.3-3.9,4.3-3.9,6.8
	l0.1,56.9c0,2.5,1.8,3.5,4,2.3l31.8-18.4l36.6-21.1c2.2-1.3,4-4.3,3.9-6.8l-0.1-56.9c0-2.5-1.8-3.5-4-2.3L314,244
	c-0.9,0.5-1.7,0.3-1.9-0.6l-1-4.6c-0.5-2-2.2-2.7-4.3-1.5L286.5,249z"/>
<path class="st14" d="M285.2,254.3c-0.6,0.3-1.1,1.2-1.1,1.8l-6.3,73c0,0.7,60.2-34.1,60.2-34.7l6.3-73c0-0.7-0.5-0.9-1.1-0.6
	L285.2,254.3z"/>
<path class="st13" d="M292.3,279.6c-3,2.2-3.9,4.7-5,7.4L273.7,330c-0.8,2.8,1.8,3.5,4,2.3l66.9-38.6c3.3-2.1,4.4-4.9,5.5-7.7
	l13.6-42.9c0.6-3.3-1.8-3.5-4-2.3L292.3,279.6z"/>
<path class="st14" d="M308.4,280.1c-1.5,1.1-1.6,1.4-2.1,2.8l-1.7,4.9c-0.4,1.4,0.9,1.8,2,1.1l33.7-19.4c1.7-1.1,1.8-1.6,2.4-3
	l1.8-4.9c0.3-1.6-0.9-1.8-2-1.1L308.4,280.1z"/>
<path class="st15" d="M245.9,145.3l-21.5,12.5l-21.6-12.5c-0.2-0.1-0.2-0.3,0-0.4l21.5-12.5l21.6,12.5
	C246.1,145,246.1,145.2,245.9,145.3z"/>
<path class="st15" d="M224.4,158.1l-0.1,8.2c0,0.5-0.5,0.8-0.9,0.5l-20.8-12c-0.2-0.1-0.3-0.3-0.3-0.5l0.1-8.2
	c0-0.5,0.5-0.8,0.9-0.5l20.8,12C224.3,157.7,224.4,157.9,224.4,158.1z"/>
<path class="st15" d="M246.3,146.2l0.1,8.2c0,0.2-0.1,0.4-0.3,0.6l-20.8,12c-0.4,0.2-0.9-0.1-0.9-0.5l-0.1-8.2
	c0-0.2,0.1-0.4,0.3-0.6l20.7-12C245.8,145.4,246.3,145.7,246.3,146.2z"/>
<path class="st15" d="M273,161l-21.5,12.5L229.9,161c-0.2-0.1-0.2-0.3,0-0.4l21.5-12.5l21.6,12.5C273.2,160.6,273.2,160.9,273,161z"
	/>
<path class="st15" d="M251.5,173.8l-0.1,8.2c0,0.5-0.5,0.8-0.9,0.5l-20.8-12c-0.2-0.1-0.3-0.3-0.3-0.5l0.1-8.2
	c0-0.5,0.5-0.8,0.9-0.5l20.8,12C251.4,173.4,251.5,173.6,251.5,173.8z"/>
<path class="st15" d="M273.4,161.8l0.1,8.2c0,0.2-0.1,0.4-0.3,0.6l-20.8,12c-0.4,0.2-0.9-0.1-0.9-0.5l-0.1-8.2
	c0-0.2,0.1-0.4,0.3-0.6l20.8-12C272.9,161.1,273.4,161.4,273.4,161.8z"/>
<path class="st16" d="M273,151.1l-21.5,12.5l-21.6-12.5c-0.2-0.1-0.2-0.3,0-0.4l21.5-12.5l21.6,12.5
	C273.2,150.8,273.2,151,273,151.1z"/>
<path class="st16" d="M251.5,164l-0.1,8.2c0,0.5-0.5,0.8-0.9,0.5l-20.8-12c-0.2-0.1-0.3-0.3-0.3-0.5l0.1-8.2c0-0.5,0.5-0.8,0.9-0.5
	l20.8,12C251.4,163.5,251.5,163.7,251.5,164z"/>
<path class="st16" d="M273.4,152l0.1,8.2c0,0.2-0.1,0.4-0.3,0.6l-20.8,12c-0.4,0.2-0.9-0.1-0.9-0.5l-0.1-8.2c0-0.2,0.1-0.4,0.3-0.6
	l20.8-12C272.9,151.2,273.4,151.5,273.4,152z"/>
<path class="st15" d="M300.3,176.6L278.8,189l-21.6-12.5c-0.2-0.1-0.2-0.3,0-0.4l21.5-12.5l21.6,12.5
	C300.5,176.2,300.5,176.5,300.3,176.6z"/>
<path class="st15" d="M278.8,189.4l-0.1,8.2c0,0.5-0.5,0.8-0.9,0.5l-20.8-12c-0.2-0.1-0.3-0.3-0.3-0.5l0.1-8.2
	c0-0.5,0.5-0.8,0.9-0.5l20.8,12C278.7,189,278.8,189.2,278.8,189.4z"/>
<path class="st15" d="M300.7,177.4l0.1,8.2c0,0.2-0.1,0.4-0.3,0.6l-20.8,12c-0.4,0.2-0.9-0.1-0.9-0.5l-0.1-8.2
	c0-0.2,0.1-0.4,0.3-0.6l20.8-12C300.2,176.6,300.7,176.9,300.7,177.4z"/>
<path class="st16" d="M300.3,166.7l-21.5,12.5l-21.6-12.5c-0.2-0.1-0.2-0.3,0-0.4l21.5-12.5l21.6,12.5
	C300.5,166.4,300.5,166.6,300.3,166.7z"/>
<path class="st16" d="M278.8,179.5l-0.1,8.2c0,0.5-0.5,0.8-0.9,0.5l-20.8-12c-0.2-0.1-0.3-0.3-0.3-0.5l0.1-8.2
	c0-0.5,0.5-0.8,0.9-0.5l20.8,12C278.7,179.1,278.8,179.3,278.8,179.5z"/>
<path class="st16" d="M300.7,167.6l0.1,8.2c0,0.2-0.1,0.4-0.3,0.6l-20.8,12c-0.4,0.2-0.9-0.1-0.9-0.5l-0.1-8.2
	c0-0.2,0.1-0.4,0.3-0.6l20.8-12C300.2,166.8,300.7,167.1,300.7,167.6z"/>
<path class="st17" d="M300.3,156.8l-21.5,12.5l-21.6-12.5c-0.2-0.1-0.2-0.3,0-0.4l21.5-12.5l21.6,12.5
	C300.5,156.5,300.5,156.7,300.3,156.8z"/>
<path class="st17" d="M278.8,169.6l-0.1,8.2c0,0.5-0.5,0.8-0.9,0.5l-20.8-12c-0.2-0.1-0.3-0.3-0.3-0.5l0.1-8.2
	c0-0.5,0.5-0.8,0.9-0.5l20.8,12C278.7,169.2,278.8,169.4,278.8,169.6z"/>
<path class="st17" d="M300.7,157.7l0.1,8.2c0,0.2-0.1,0.4-0.3,0.6l-20.8,12c-0.4,0.2-0.9-0.1-0.9-0.5l-0.1-8.2
	c0-0.2,0.1-0.4,0.3-0.6l20.8-12C300.2,156.9,300.7,157.2,300.7,157.7z"/>
<path class="st2" d="M225.2,323.4c17.5-10.1,17.4-42.8-0.1-72.9c-17.5-30.1-45.9-46.3-63.3-36.2s-17.4,42.8,0.1,72.9
	C179.4,317.3,207.8,333.5,225.2,323.4z"/>
<path class="st18" d="M194.1,211.1c-28-16.1-50.7-3.2-50.8,28.9c-0.1,32.1,22.5,71.3,50.5,87.4c28,16.1,50.7,3.2,50.8-28.9
	C244.7,266.4,222.1,227.2,194.1,211.1z M193.4,320.3c-24.7-14.3-44.7-48.8-44.6-77.2c0.1-28.4,20.2-39.8,44.9-25.6
	c24.7,14.3,44.7,48.8,44.6,77.2C238.3,323.1,218.2,334.5,193.4,320.3z"/>
<path class="st12" d="M328.2,210.1l19.3-17.1l2.4,1l-7.5,24.2l-4-2.3l-21.2,40.2l-12.2-6.8l-13.4,26.2l-6.4-2.5l19.2-37.4l12.4,6.9
	l15.8-29.9L328.2,210.1z"/>
<path class="st19" d="M330.5,211.1l19.3-17.1l-5.1,25.2l-4-2.3l-21.2,40.2l-12.2-6.8l-13.4,26.2l-6.4-2.5l19.2-37.4l12.4,6.9
	l15.8-29.9L330.5,211.1z"/>
<path class="st12" d="M350.5,86.7c4.8,2.8,8.6,9.4,8.6,14.9l-0.1,23.1c0,2.4-0.8,4.2-2,5.2c-0.9,0.8-2.7,2.8-4.1,2.6
	c-1-0.1-1.5-2.2-2.6-2.8L323,113.9c-1.8-1-3.5-1.3-4.9-0.7l-6.4,2.7c-0.2,0.1-0.5,0-0.7-0.1c-0.6-0.3-1.1-1.2-1.1-1.9l0-7.7
	c-4.3-3.1-7.6-9.2-7.6-14.3l0.1-23.1c0-1.1-1.3-2.6-0.7-3.2c1-1.1,2.2-1.7,3.1-2.3c1.6-1,3.8-0.9,6.3,0.5L350.5,86.7z"/>
<linearGradient id="SVGID_13_" gradientUnits="userSpaceOnUse" x1="296.0143" y1="370.8057" x2="364.9543" y2="294.8723" gradientTransform="matrix(1 0 0 -1 0 437.89)">
	<stop  offset="2.210320e-02" style="stop-color:#F33CC0"/>
	<stop  offset="0.7092" style="stop-color:#4349FF"/>
</linearGradient>
<path class="st20" d="M348,88.5c4.8,2.8,8.6,9.4,8.6,14.9l-0.1,23.1c0,5.5-3.9,7.7-8.7,5l-27.4-15.8c-1.8-1-3.5-1.3-4.9-0.7
	l-6.4,2.7c-0.2,0.1-0.5,0-0.7-0.1c-0.6-0.3-1.1-1.2-1.1-1.9l0-7.7c-4.3-3.1-7.6-9.2-7.6-14.3l0.1-23.1c0-5.5,3.9-7.7,8.7-4.9
	L348,88.5z"/>
<path class="st3" d="M345.7,100.5c0.9,0.5,1.6,1.8,1.6,2.8c0,1-0.7,1.5-1.6,0.9l-35.9-20.7c-0.9-0.5-1.6-1.8-1.6-2.8
	c0-1,0.7-1.5,1.6-0.9L345.7,100.5z"/>
<path class="st3" d="M345.7,112.3c0.9,0.5,1.6,1.8,1.6,2.8c0,1-0.7,1.5-1.6,0.9l-35.9-20.7c-0.9-0.5-1.6-1.8-1.6-2.8
	c0-1,0.7-1.5,1.6-0.9L345.7,112.3z"/>
<path class="st9" d="M411.6,358.2l-40.4-23.4l-0.9,0.2l-0.4-0.2l-0.4-0.9l-4.6-2.7l-61.4,33.3c-0.4-1.6-3.4,0.1-4.6-0.6
	c-1.6-0.9-3.2,0.1-3.2,2c0,1.8,1.1,3.8,2.6,4.9c0,0,0.1,0.1,0.1,0.1c0,0,0.1,0.1,0.1,0.1c0,0,0,0,0,0c0,0,0,0,0,0
	c0.1,0.1,0.2,0.1,0.4,0.2l3.1,1.8l0.6-0.1l0.6,0.3l0.4,0.7l40.6,23.4c2.7,1.5,7,1.5,9.7,0l57.8-33.6
	C414.3,362.3,414.3,359.7,411.6,358.2z"/>
<path class="st21" d="M410.7,355.7l-41.4-22.4l-0.9,0.2l-0.4-0.2l-0.4-0.9l-4.5-2.6c0,0-46.7,23.1-62,32.4c-0.5,0.3-0.9,0.7-1.1,1.1
	c-0.9-0.3-1.6,0.3-1.6,1.4c0,1.3,0.9,2.9,2.1,3.6c0.1,0.1,0.2,0.1,0.4,0.2l43.6,25.2c2.6,1.5,6.8,1.5,9.4,0l54.9-32.1
	c1.4-0.8,2-1.9,1.9-2.9C410.6,357.7,410.7,355.7,410.7,355.7z"/>
<path class="st0" d="M411.6,351.2l-40.4-23.4l-0.9,0.2l-0.4-0.2l-0.4-0.9l-4.6-2.7l-68.1,39.6c0.4-0.3,0.9-0.2,1.6,0.1
	c0.1,0.1,0.4,0.2,0.6,0.3l3.1,1.8l0.3,0.9l0.6,0.3l0.7-0.3l40.6,23.4c2.7,1.5,7,1.5,9.7,0l57.8-33.6
	C414.3,355.3,414.2,352.8,411.6,351.2z"/>
<path class="st2" d="M303.6,367l67.6-39.1"/>
<path class="st3" d="M392,354c0.9,0.5,0.9,1.3,0,1.9c-0.9,0.5-2.3,0.5-3.2,0L365,342c-0.9-0.5-0.9-1.3,0-1.9c0.9-0.5,2.3-0.5,3.2,0
	L392,354z"/>
<path class="st3" d="M384.9,358.2c0.9,0.5,0.9,1.3,0,1.9c-0.9,0.5-2.3,0.5-3.2,0l-23.8-13.8c-0.9-0.5-0.9-1.3,0-1.9
	c0.9-0.5,2.3-0.5,3.2,0L384.9,358.2z"/>
<path class="st3" d="M377.2,362.1c0.9,0.5,0.9,1.3,0,1.9c-0.9,0.5-2.3,0.5-3.2,0l-23.8-13.8c-0.9-0.5-0.9-1.3,0-1.9
	c0.9-0.5,2.3-0.5,3.2,0L377.2,362.1z"/>
<path d="M73.9,227.5c0-3.1,2.1-6.9,4.6-8.5c0.1-0.1,0.2-0.1,0.3-0.2c2.1-1.2,3.3-0.6,3.5-0.5c0.2,0.1,0.4,0,0.5,0
	c0.4-0.2,0.3-0.9,0.3-0.9l-0.2-6.7l1.1-0.9l-1.6-1.2c0,0-0.1,0-0.1-0.1l0,0l0,0c-0.3-0.2-0.8-0.2-1.3,0.1l-21.9,12.7
	c-1.1,0.6-1.9,2.1-1.9,3.3l0.1,25.2c0,0.3,0,0.5,0.1,0.7c0,0.1,0.2,0.3,0.2,0.3l2,1.6l0.6-2.1l5.7-3.6c0.2-0.1,0.4-0.2,0.4-0.2
	c0,0,0.1,0,0.1-0.1c1.7-1,2.1,0.3,2.1,0.4c0,0,0.4,0.9-0.6,2.7c0,0.1-0.1,0.1-0.1,0.2l-1-0.7l0,0c-0.1-0.1-0.3,0-0.5,0.1
	c-0.1,0-0.1,0.1-0.1,0.1l-6.8,4.1c-1.1,0.6-1.9,2.1-1.9,3.3l0.1,25.2c0,0.6,0.2,0.9,0.5,1.2l0,0l1.9,1.4l0.8-2.2L81.4,270
	c1.1-0.6,1.9-2.1,1.9-3.3l-0.4-7.5c0-0.2,0-0.4,0-0.4c-0.1-2.1,1.3-3.3,1.4-3.4c0,0,0.2-0.2,0.4-0.3c0.4-0.2,0.9-0.4,1.6-0.1
	c0.1,0.1,0.2,0.2,0.3,0.2c0.6,0.3,1.4,0.3,2.2-0.2c1.6-0.9,2.8-2.9,3.2-4.9l1.1-2l-1.5-1c-0.6-0.8-1.6-1-2.8-0.3
	c-0.9,0.5-1.6,1.3-2.2,2.4c-0.1,0.2-0.2,0.4-0.3,0.6c-0.6,1-1.2,1.5-1.6,1.7c-0.3,0.2-0.4,0.2-0.4,0.2c-0.1,0-1.2,0.6-1.4-1.3
	c0,0,0-0.6,0-0.7l0.2-5.2l1.5-2.8l-1.9-1.4c-0.3-0.2-0.8-0.2-1.4,0.1l-7,3.8c-0.2,0.1-0.8,0.5-0.2,1c0.2,0.1,1.4,0.7,1.3,3.6
	c-0.1,3-2.4,6.7-5,8.3c-1.6,0.9-3,0.9-3.9,0.2l-0.9-5l0,0l1.4-1.1c-0.2,0.6-0.3,1.2-0.3,1.8c0,0.7,0.2,1.3,0.5,1.7l0,0l0,0
	c0.2,0.2,0.4,0.3,0.6,0.4l1.5,1.2l0.5-1.3c0.1-0.1,0.3-0.1,0.4-0.2c2-1.1,3.6-3.8,3.6-5.9c0-1-0.4-1.7-0.9-2
	c-0.1-0.1-0.2-0.1-0.4-0.2c-1-0.6-0.7-1.8-0.7-1.9c0-0.1,0.1-1.4,1.8-2.6c0,0,0.5-0.3,0.6-0.4l6.9-3.5c1.1-0.6,1.9-2.1,1.9-3.3
	l0.1-5.1l1.5-2.1l-1.5-1.1c0-0.2-0.1-0.3-0.3-0.2c-0.1,0.1-0.3,0.2-0.5,0.6c0,0-0.1,0.1-0.1,0.2l-1.5,1.8c-0.5,0.5-1.1,1-1.9,1.5
	c-0.1,0-0.2,0.1-0.3,0.1C76,232,73.9,230.5,73.9,227.5z"/>
<path class="st2" d="M65.5,252.3l0.9,5c0.9,0.7,2.4,0.7,3.9-0.2c2.7-1.5,5-5.3,5-8.3c0.1-2.9-1.1-3.5-1.3-3.6c-0.6-0.5,0-0.9,0.2-1
	l7-3.8c0.5-0.3,1-0.3,1.4-0.1l1.9,1.4l-1.5,2.8l-0.2,5.2c0,0.1,0,0.7,0,0.7c0.2,1.9,1.3,1.3,1.4,1.3c0,0,0.2,0,0.4-0.2
	c0.4-0.2,0.9-0.7,1.6-1.7c0.1-0.2,0.2-0.4,0.3-0.6c0.6-1,1.4-1.9,2.2-2.4c1.2-0.7,2.2-0.5,2.8,0.3l1.5,1l-1.1,2
	c-0.4,2-1.7,4-3.2,4.9c-0.9,0.5-1.6,0.5-2.2,0.2c-0.1-0.1-0.2-0.1-0.3-0.2c-0.6-0.3-1.2-0.1-1.6,0.1c-0.3,0.2-0.4,0.3-0.4,0.3
	c-0.1,0.1-1.5,1.3-1.4,3.4c0,0,0,0.3,0,0.4l0.4,7.5c0,1.2-0.9,2.7-1.9,3.3l-20.7,11.9l-0.8,2.2l-1.9-1.4l0,0
	c-0.3-0.2-0.5-0.6-0.5-1.2l-0.1-25.2c0-1.2,0.9-2.7,1.9-3.3l6.8-4.1c0,0,0.1,0,0.1-0.1c0.1-0.1,0.4-0.2,0.5-0.1l0,0l1,0.7
	c0-0.1,0.1-0.1,0.1-0.2c1-1.8,0.7-2.6,0.6-2.7c0-0.1-0.4-1.4-2.1-0.4c0,0-0.1,0-0.1,0.1c0,0-0.2,0.1-0.4,0.2l-5.7,3.6l-0.6,2.1
	l-2-1.6c0,0-0.2-0.2-0.2-0.3c-0.1-0.2-0.1-0.4-0.1-0.7l-0.1-25.2c0-1.2,0.9-2.7,1.9-3.3L81,208.6c0.5-0.3,1-0.3,1.3-0.1l0,0l0,0
	c0,0,0.1,0,0.1,0.1l1.6,1.2l-1.1,0.9l0.2,6.7c0,0,0.1,0.7-0.3,0.9c-0.1,0.1-0.3,0.1-0.5,0c-0.1-0.1-1.4-0.7-3.5,0.5
	c-0.1,0.1-0.2,0.1-0.3,0.2c-2.6,1.6-4.6,5.4-4.6,8.5c0,3.1,2.1,4.5,4.7,3.1c0.1,0,0.2-0.1,0.3-0.1c0.8-0.4,1.4-1,1.9-1.5l1.5-1.8
	c0.1-0.1,0.1-0.2,0.1-0.2c0.2-0.3,0.4-0.5,0.5-0.6c0.2-0.1,0.3,0,0.3,0.2l1.5,1.1l-1.5,2.1l-0.1,5.1c0,1.2-0.9,2.7-1.9,3.3l-6.9,3.5
	c-0.1,0.1-0.6,0.4-0.6,0.4c-1.7,1.2-1.8,2.6-1.8,2.6c0,0.1-0.4,1.3,0.7,1.9c0.1,0,0.3,0.1,0.4,0.2c0.6,0.4,0.9,1.1,0.9,2
	c0,2.1-1.6,4.8-3.6,5.9c-0.1,0.1-0.3,0.1-0.4,0.2l-0.5,1.3l-1.5-1.2c-0.2-0.1-0.4-0.2-0.6-0.4l0,0l0,0c-0.3-0.4-0.5-0.9-0.5-1.7
	c0-0.6,0.1-1.2,0.3-1.8L65.5,252.3z M65.5,252.3L65.5,252.3z"/>
<path class="st12" d="M102.6,222.3c-0.2,2-1.1,3.7-1.2,3.9c-0.3,0.6-0.3,0.8-0.2,0.9c0.1,0.1,1.7,1.3,1.7,1.3l5.6-5.5
	c1.1-0.6,1.9-2.1,1.9-3.3l-0.1-23.1l1-2.2l-1.6-1.2c0,0-0.5-0.4-1.3,0.2l-21.9,12.7c-1.1,0.6-1.9,2.1-1.9,3.3l0.4,7.5
	c0,0.2,0,0.4,0,0.4c0.1,2.1-1.3,3.3-1.4,3.4c0,0-0.2,0.2-0.4,0.3c-0.4,0.2-0.9,0.4-1.6,0.1c-0.1-0.1-0.2-0.2-0.3-0.2
	c-0.6-0.3-1.4-0.3-2.2,0.2c-1.8,1.1-3.3,3.8-3.3,6c0,1.1,0.4,2,1,2.3l1.9,1.4l1.1-1.9l-0.1,0c0.7-0.5,1.3-1.2,1.7-2
	c0.1-0.2,0.2-0.4,0.3-0.6c0.6-1,1.2-1.5,1.6-1.7c0.3-0.2,0.4-0.2,0.4-0.2c0.1,0,1.2-0.6,1.4,1.3c0,0,0,0.6,0,0.7l-0.4,8.2
	c0,0.5,0.2,0.9,0.5,1.1l0,0l1.7,1.2l1.6-1.8l-0.6-0.2l5.7-3.1c0.2-0.1,0.8-0.5,0.2-1c-0.2-0.1-1.4-0.7-1.3-3.6c0.1-3,2.4-6.7,5-8.3
	c2.7-1.5,4.9-0.5,5.1,2.4C102.6,221.5,102.6,221.9,102.6,222.3L102.6,222.3z"/>
<path class="st0" d="M82.7,209.8c1.1-0.6,1.9-0.1,1.9,1.1l0.2,7.7c0,0,0.1,0.7-0.3,0.9c-0.1,0.1-0.3,0.1-0.5,0
	c-0.1-0.1-1.4-0.7-3.5,0.5c-0.1,0.1-0.2,0.1-0.3,0.2c-2.6,1.6-4.6,5.4-4.6,8.5c0,3.1,2.1,4.5,4.7,3.1c0.1,0,0.2-0.1,0.3-0.1
	c2.3-1.3,3.3-3.2,3.5-3.5c0.2-0.3,0.4-0.5,0.5-0.6c0.3-0.2,0.3,0.4,0.3,0.4l-0.1,8c0,1.2-0.9,2.7-1.9,3.3l-6.9,3.5
	c-0.1,0.1-0.6,0.4-0.6,0.4c-1.7,1.2-1.8,2.6-1.8,2.6c0,0.1-0.4,1.3,0.7,1.9c0.1,0,0.3,0.1,0.4,0.2c0.6,0.4,0.9,1.1,0.9,2
	c0,2.1-1.6,4.8-3.6,5.9c-2,1.1-3.6,0.3-3.6-1.8c0-1,0.3-2.1,0.9-3.1c0.1-0.2,0.2-0.4,0.4-0.6c1-1.8,0.7-2.6,0.6-2.7
	c0-0.1-0.4-1.4-2.1-0.4c0,0-0.1,0-0.1,0.1c0,0-0.2,0.1-0.4,0.2l-6.7,4.3c-1.1,0.6-1.9,0.1-1.9-1.1l-0.1-25.2c0-1.2,0.9-2.7,1.9-3.3
	L82.7,209.8z"/>
<path class="st0" d="M68,250.1c0.3-0.2,0.8-0.4,0.3,0.8c-0.2,0.3-1.4,2.5-1.3,5c0.1,2.9,2.4,3.9,5.1,2.4c2.7-1.5,5-5.3,5-8.3
	c0.1-2.9-1.1-3.5-1.3-3.6c-0.6-0.5,0-0.9,0.2-1l7-3.8c1.1-0.6,1.9-0.1,1.9,1.1l-0.4,8.2c0,0.1,0,0.7,0,0.7c0.2,1.9,1.3,1.3,1.4,1.3
	c0,0,0.2,0,0.4-0.2c0.4-0.2,0.9-0.7,1.6-1.7c0.1-0.2,0.2-0.4,0.3-0.6c0.6-1,1.4-1.9,2.2-2.4c1.8-1.1,3.3-0.1,3.4,2.2
	c0,2.3-1.5,5-3.3,6c-0.9,0.5-1.6,0.5-2.2,0.2c-0.1-0.1-0.2-0.1-0.3-0.2c-0.6-0.3-1.2-0.1-1.6,0.1c-0.3,0.2-0.4,0.3-0.4,0.3
	c-0.1,0.1-1.5,1.3-1.4,3.4c0,0,0,0.3,0,0.4l0.4,7.5c0,1.2-0.9,2.7-1.9,3.3l-21.9,12.7c-1.1,0.6-1.9,0.1-1.9-1.1l-0.1-25.2
	c0-1.2,0.9-2.7,1.9-3.3l6.8-4.1C67.9,250.2,67.9,250.1,68,250.1z"/>
<path class="st0" d="M110.2,194.4c1.1-0.6,1.9-0.1,1.9,1.1l0.1,25.2c0,1.2-0.9,2.7-1.9,3.3l-6.8,4.1c0,0-0.1,0-0.1,0.1
	c-0.3,0.2-0.8,0.4-0.3-0.8c0.2-0.3,1.4-2.5,1.3-5c-0.1-2.9-2.4-4-5.1-2.4c-2.7,1.5-5,5.3-5,8.3c-0.1,2.9,1.1,3.5,1.3,3.6
	c0.6,0.5,0,0.9-0.2,1l-7,3.8c-1.1,0.6-1.9,0.1-1.9-1.1l0.4-8.2c0-0.1,0-0.7,0-0.7c-0.2-1.9-1.3-1.3-1.4-1.3c0,0-0.2,0-0.4,0.2
	c-0.4,0.2-0.9,0.7-1.6,1.7c-0.1,0.2-0.2,0.4-0.3,0.6c-0.6,1-1.4,1.9-2.2,2.4c-1.8,1.1-3.3,0.1-3.4-2.2c0-2.3,1.5-5,3.3-6
	c0.9-0.5,1.6-0.5,2.2-0.2c0.1,0.1,0.2,0.1,0.3,0.2c0.6,0.3,1.2,0.1,1.6-0.1c0.3-0.2,0.4-0.3,0.4-0.3c0.1-0.1,1.5-1.3,1.4-3.4
	c0,0,0-0.3,0-0.4l-0.4-7.5c0-1.2,0.9-2.7,1.9-3.3L110.2,194.4z"/>
<path class="st12" d="M110.1,228.5c0,0-2.7,6.2-1,5.2c0,0,0.1,0,0.1-0.1c0,0,0.2-0.1,0.4-0.2l6.7-4.3c0.8-0.5,1.3-0.2,1.3-0.2
	l1.5,1.2l-0.9,2.5l0.1,22.8c0,1.2-0.9,2.7-1.9,3.3L97,270l-2.3,2.7l-1.5-1.1l0,0c-0.4-0.2-0.6-0.6-0.6-1.3l-0.2-7.7
	c0,0-0.1-0.7,0.3-0.9c0.1-0.1,0.3-0.1,0.5,0c0.1,0.1,1.4,0.7,3.5-0.5c0.1-0.1,0.2-0.1,0.3-0.2c2.6-1.6,4.6-5.4,4.6-8.5
	c0-3.1-2.1-4.5-4.7-3.1c-0.1,0-0.2,0.1-0.3,0.1c-1.6,0.9-1.8,3.6-2,4.8c-0.1,0.5-0.4,0.5-0.4,0.5s-1.1-0.7-1.6-1
	c-0.3-0.2-0.3-0.7-0.3-0.7l0.1-8c0-1.2,0.9-2.7,1.9-3.3l6.9-3.5c0.1-0.1,0.6-0.4,0.6-0.4c1.7-1.2,1.8-2.6,1.8-2.6
	c0-0.1,0.4-1.3-0.7-1.9c-0.1,0-0.3-0.1-0.4-0.2c-0.6-0.4-0.9-1-0.9-2c0-2.1,1.6-4.8,3.6-5.9c0.9-0.5,1.7-0.6,2.4-0.4
	c0,0,0.1,0,0.1,0c0,0,0.4,0.2,0.6,0.4l1.4,1L110.1,228.5z"/>
<path class="st22" d="M107.1,226.5c2-1.1,3.6-0.3,3.6,1.8c0,1-0.3,2.1-0.9,3.1c-0.1,0.2-0.2,0.4-0.4,0.6c-1,1.8-0.7,2.6-0.6,2.7
	c0,0.1,0.4,1.4,2.1,0.4c0,0,0.1,0,0.1-0.1c0,0,0.2-0.1,0.4-0.2l6.7-4.3c1.1-0.6,1.9-0.1,1.9,1.1l0.1,25.2c0,1.2-0.9,2.7-1.9,3.3
	l-21.9,12.7c-1.1,0.6-1.9,0.1-1.9-1.1l-0.2-7.7c0,0-0.1-0.7,0.3-0.9c0.1-0.1,0.3-0.1,0.5,0c0.1,0.1,1.4,0.7,3.5-0.5
	c0.1-0.1,0.2-0.1,0.3-0.2c2.6-1.6,4.6-5.4,4.6-8.5c0-3.1-2.1-4.5-4.7-3.1c-0.1,0-0.2,0.1-0.3,0.1c-2.3,1.3-3.3,3.2-3.5,3.5
	c-0.2,0.3-0.4,0.5-0.5,0.6c-0.3,0.2-0.3-0.4-0.3-0.4l0.1-8c0-1.2,0.9-2.7,1.9-3.3l6.9-3.5c0.1-0.1,0.6-0.4,0.6-0.4
	c1.7-1.3,1.8-2.6,1.8-2.6c0-0.1,0.4-1.3-0.7-1.9c-0.1,0-0.3-0.1-0.4-0.2c-0.6-0.4-0.9-1-0.9-2C103.6,230.3,105.2,227.6,107.1,226.5z
	"/>
<path class="st0" d="M434.6,269.9c11.7,6.8,11.7,17.7,0.1,24.5c-11.6,6.7-30.5,6.8-42.2,0c-11.7-6.7-11.7-17.7-0.1-24.5
	C404,263.2,423,263.2,434.6,269.9z"/>
<path class="st17" d="M434.6,264.2c11.7,6.8,11.7,17.7,0.1,24.5c-11.6,6.7-30.5,6.8-42.2,0c-11.7-6.7-11.7-17.7-0.1-24.5
	C404,257.5,423,257.5,434.6,264.2z"/>
<path class="st13" d="M437.5,220.7L437.5,220.7l0-10.7c0-3.5-2.4-7.1-7-9.8c-9.4-5.4-24.5-5.4-33.8,0c-4.6,2.7-7,6.2-6.9,9.8v10.7h0
	c0.3,10,6.8,18.5,15.7,21.7c-8.9,3.3-15.4,11.7-15.7,21.7h0v10.7c0,3.5,2.4,7.1,7,9.8c9.4,5.4,24.5,5.4,33.8,0
	c4.6-2.7,7-6.2,6.9-9.8v-10.7h0c-0.3-10-6.8-18.5-15.7-21.7C430.7,239.1,437.2,230.7,437.5,220.7z"/>
<path class="st21" d="M435,274.1C435,274.1,435,274.1,435,274.1l0-12.4h-42.9l0,11.9l0,0c-0.2,3.3,1.9,6.7,6.3,9.2
	c8.4,4.8,22,4.8,30.3,0C432.9,280.4,435,277.2,435,274.1z"/>
<path class="st21" d="M428.7,253.4c8.4,4.8,8.4,12.7,0.1,17.6c-8.3,4.8-21.9,4.8-30.3,0c-8.4-4.8-8.4-12.7-0.1-17.5
	C406.7,248.6,420.3,248.6,428.7,253.4z"/>
<path class="st21" d="M429.3,225.7c5.8,3.3,0.6,8.7-5.2,12.1c-5.7,3.3-15.1,3.3-20.9,0c-5.8-3.3-10.7-8.8-5-12.1
	C403.9,222.3,423.5,222.3,429.3,225.7z"/>
<path class="st21" d="M426.6,220.3c7.2,4.2,7.3,10.9,0.1,15.1c-7.2,4.2-18.9,4.2-26.1,0c-7.2-4.2-7.3-11-0.1-15.1
	C407.7,216.1,419.4,216.1,426.6,220.3z"/>
<path class="st9" d="M434.6,197.7c11.7,6.8,11.7,17.7,0.1,24.5c-11.6,6.7-30.5,6.8-42.2,0c-11.7-6.7-11.7-17.7-0.1-24.5
	C404,190.9,423,190.9,434.6,197.7z"/>
<path class="st17" d="M434.6,192c11.7,6.8,11.7,17.7,0.1,24.5c-11.6,6.7-30.5,6.8-42.2,0c-11.7-6.7-11.7-17.7-0.1-24.5
	C404,185.2,423,185.2,434.6,192z"/>
<path class="st17" d="M428.7,195.4c8.4,4.8,8.4,12.7,0.1,17.6c-8.3,4.8-21.9,4.8-30.3,0c-8.4-4.8-8.4-12.7-0.1-17.5
	C406.7,190.6,420.3,190.6,428.7,195.4z"/>
<path d="M398.4,197.5c8.3-4.8,21.9-4.8,30.3,0c3.8,2.2,5.8,5,6.2,7.8c0.5-3.5-1.6-7.1-6.2-9.8c-8.4-4.8-22-4.8-30.3,0
	c-4.6,2.7-6.6,6.2-6.1,9.7C392.6,202.3,394.7,199.6,398.4,197.5z"/>
<path class="st21" d="M413.6,248.2c1.8,0,3.3-1.5,3.3-3.3c0-1.8-1.5-3.3-3.3-3.3c-1.8,0-3.3,1.5-3.3,3.3
	C410.3,246.8,411.8,248.2,413.6,248.2z"/>
<path class="st23" d="M192.3,361l-1.9,3c-0.2,0.3-0.5,0.5-0.8,0.5c-1.1,0-4,1.4-4.4,0.7l2.2-1.3l2.1,0.3v-10l-9.4,3.6l0.7,0.7
	l-1.9,0.3c-0.5-0.3-1-0.7-1.6-1c-0.6-0.3-1.1-0.6-1.7-0.9l1.6-3.3c-2.6-1.2-5.4-2.1-8.4-2.8l-4.1,2.5c-1.5-0.3-3-0.5-4.5-0.7
	l-1.5-3.3c-3.2-0.2-6.4-0.2-9.6,0l-1.4,3.4c-1.5,0.2-3,0.4-4.5,0.7l-4.2-2.5c-1.6,0.4-3.1,0.8-4.6,1.3l0.1-0.1l-0.8-5.2l-3.1-1.8
	v8.5l0.8-0.3c-0.3,0.1-0.6,0.2-0.8,0.3l1.7,3.3c-0.6,0.3-1.2,0.6-1.7,0.9c-0.6,0.3-1.1,0.7-1.6,1l-2.7-0.5l0.3-0.6l-8.1-3.2v6.3
	l3.6,2.6c-0.5,0.9-1.8,0-2.1,0.9l-4.2-3.4c-0.4,1.9-0.3,11.3,0.1,13.1l2.7,0.4v5.5c1.2,1.7,2.9,3.3,4.9,4.8l5.7-1
	c0.5,0.3,1,0.7,1.6,1c0,0,0.1,0,0.1,0.1v4.2c2.6,1.1,5.4,2.1,8.4,2.8l4.1-2.5c1.5,0.3,3,0.5,4.5,0.7l1.5,3.4c3.2,0.2,6.4,0.2,9.6,0
	l1.4-3.4c1.5-0.2,3-0.4,4.5-0.7l4.2,2.5c2.9-0.7,5.7-1.6,8.3-2.8V385c0,0,0,0,0,0c0.6-0.3,1.1-0.7,1.6-1l5.8,1
	c2-1.5,3.6-3.1,4.8-4.8v-5.5l2.7-0.4C192.6,372.4,192.7,362.8,192.3,361z M165.2,377.9c-6.2,3.6-16.2,3.6-22.4,0
	c-6.2-3.6-6.2-9.4-0.1-13c6.2-3.6,16.2-3.6,22.4,0C171.3,368.5,171.4,374.3,165.2,377.9z"/>
<path class="st23" d="M177.1,345.2l-8.8,4.6l8.8,3.3V345.2z"/>
<path class="st19" d="M177.4,376.4c-0.6,0.3-1.1,0.6-1.7,0.9l1.7,3.3c-2.6,1.2-5.4,2.1-8.3,2.8l-4.2-2.5c-1.5,0.3-3,0.5-4.5,0.7
	l-1.4,3.4c-3.2,0.2-6.4,0.2-9.6,0l-1.5-3.4c-1.5-0.2-3-0.4-4.5-0.7l-4.1,2.5c-2.9-0.7-5.7-1.6-8.4-2.8l1.6-3.3
	c-0.6-0.3-1.2-0.6-1.7-0.9c-0.6-0.3-1.1-0.7-1.6-1l-5.7,1c-2-1.5-3.6-3.1-4.9-4.8l4.3-2.4c-0.5-0.9-0.9-1.7-1.2-2.6l-5.8-0.8
	c-0.4-1.9-0.4-3.7,0-5.6l5.8-0.8c0.3-0.9,0.7-1.8,1.2-2.6l-4.3-2.4c1.2-1.7,2.8-3.3,4.8-4.8l5.8,1c0.5-0.3,1-0.7,1.6-1
	c0.6-0.3,1.1-0.6,1.7-0.9l-1.7-3.3c2.6-1.1,5.4-2.1,8.3-2.8l4.2,2.5c1.5-0.3,3-0.5,4.5-0.7l1.4-3.4c3.2-0.2,6.4-0.2,9.6,0l1.5,3.3
	c1.5,0.2,3,0.4,4.5,0.7l4.1-2.5c2.9,0.7,5.7,1.6,8.4,2.8l-1.6,3.3c0.6,0.3,1.2,0.6,1.7,0.9c0.6,0.3,1.1,0.7,1.6,1l5.7-1
	c2,1.5,3.6,3.1,4.8,4.8l-4.3,2.4c0.5,0.9,0.9,1.7,1.2,2.6l5.8,0.8c0.4,1.9,0.4,3.7,0,5.6l-5.8,0.8c-0.3,0.9-0.7,1.8-1.2,2.6l4.3,2.4
	c-1.2,1.7-2.8,3.3-4.8,4.8l-5.8-1C178.5,375.8,177.9,376.1,177.4,376.4z M142.8,369.4c6.2,3.6,16.2,3.6,22.4,0
	c6.2-3.6,6.1-9.4-0.1-13c-6.2-3.6-16.2-3.6-22.4,0C136.6,360,136.6,365.8,142.8,369.4z"/>
<path class="st12" d="M240.5,13c1.2-0.7,2.2-0.1,2.2,1.3l0.2,67.2c0,1.4-1,3.1-2.2,3.8l-88.2,50.9c-1.2,0.7-2.2,0.1-2.2-1.3
	l-0.2-67.2c0-1.4,1-3.1,2.2-3.8L240.5,13z"/>
<path class="st0" d="M242.7,14.2c1.2-0.7,2.2-0.1,2.2,1.3l0.2,67.2c0,1.4-1,3.1-2.2,3.8l-88.2,50.9c-1.2,0.7-2.2,0.1-2.2-1.3
	L152.3,69c0-1.4,1-3.1,2.2-3.8L242.7,14.2z"/>
<path class="st12" d="M177.2,96.7l-2.5-1.5c-0.2-0.1-0.4-0.3-0.6-0.4c-1.5-0.7-3.4-0.5-5.6,0.7c-4.6,2.6-8.3,9-8.2,14.3
	c0,2.2,0.7,3.9,1.8,4.9l0,0l0,0c0.3,0.3,0.7,0.5,1,0.6l2.4,1.4l0.8-1.3c0.7-0.2,1.5-0.5,2.3-0.9c4.6-2.6,8.2-9,8.2-14.3
	c0-0.9-0.1-1.7-0.3-2.4L177.2,96.7z"/>
<path class="st9" d="M171.5,97.3c-4.6,2.6-8.3,9-8.2,14.3c0,5.2,3.7,7.4,8.3,4.7c4.6-2.6,8.3-9,8.2-14.3
	C179.8,96.8,176.1,94.7,171.5,97.3z"/>
<path class="st12" d="M174.5,100.3l1.6,0.3l-4.5,10.5c-0.2,0.5-0.5,0.8-0.8,1c0,0-0.1,0-0.1,0.1c-0.2,0.1-0.5,0.2-0.7,0.1l-3.1-1.6
	l1.3-2.4l2.3,1.2L174.5,100.3z"/>
<path class="st12" d="M234.8,67.5L233,66c0,0-0.7-0.6-2.4,0.3l-42.3,24.4c-1.9,1.1-3.5,3.8-3.5,6c0,1.3,0.8,1.7,1.3,2.3l1.1,1.1
	l10.5-7l32.8-19c1.9-1.1,3.5-3.8,3.5-6c0-0.1,0-0.1,0-0.2L234.8,67.5z"/>
<path class="st9" d="M232.4,67.8c1.9-1.1,3.5-0.2,3.5,2c0,2.2-1.5,4.9-3.5,6l-42.3,24.4c-1.9,1.1-3.5,0.2-3.5-2c0-2.2,1.5-4.9,3.5-6
	L232.4,67.8z"/>
<path class="st12" d="M177.2,70.7l-2.5-1.5c-0.2-0.1-0.4-0.3-0.6-0.4c-1.5-0.7-3.4-0.5-5.6,0.7c-4.6,2.6-8.3,9-8.2,14.3
	c0,2.2,0.7,3.9,1.8,4.9l0,0l0,0c0.3,0.3,0.7,0.5,1,0.6l2.4,1.4l0.8-1.3c0.7-0.2,1.5-0.5,2.3-0.9c4.6-2.6,8.2-9,8.2-14.3
	c0-0.9-0.1-1.7-0.3-2.4L177.2,70.7z"/>
<path class="st9" d="M171.5,71.4c-4.6,2.6-8.3,9-8.2,14.3c0,5.2,3.7,7.4,8.3,4.7c4.6-2.6,8.3-9,8.2-14.3S176.1,68.7,171.5,71.4z"/>
<path class="st12" d="M174.5,74.3l1.6,0.3l-4.5,10.5c-0.2,0.5-0.5,0.8-0.8,1c0,0-0.1,0-0.1,0.1c-0.2,0.1-0.5,0.2-0.7,0.1l-3.1-1.6
	l1.3-2.4l2.3,1.2L174.5,74.3z"/>
<path class="st12" d="M234.8,41.5L233,40c0,0-0.7-0.6-2.4,0.3l-42.3,24.4c-1.9,1.1-3.5,3.8-3.5,6c0,1.3,0.8,1.7,1.3,2.3l1.1,1.1
	l10.5-7l32.8-19c1.9-1.1,3.5-3.8,3.5-6c0-0.1,0-0.1,0-0.2L234.8,41.5z"/>
<path class="st9" d="M232.4,41.8c1.9-1.1,3.5-0.2,3.5,2c0,2.2-1.5,4.9-3.5,6l-42.3,24.4c-1.9,1.1-3.5,0.2-3.5-2c0-2.2,1.5-4.9,3.5-6
	L232.4,41.8z"/>
</svg>
