<?xml version="1.0" encoding="utf-8"?>
<!-- Generator: Adobe Illustrator 23.0.3, SVG Export Plug-In . SVG Version: 6.00 Build 0)  -->
<svg version="1.1" id="Layer_1" xmlns="http://www.w3.org/2000/svg" xmlns:xlink="http://www.w3.org/1999/xlink" x="0px" y="0px"
	 viewBox="0 0 800 800" style="enable-background:new 0 0 800 800;" xml:space="preserve">
<style type="text/css">
	.st0{fill:#C9D0E8;}
</style>
<path class="st0" d="M666.7,637.5H133.3c-20.7,0-37.5-16.8-37.5-37.5s16.8-37.5,37.5-37.5h533.3c20.7,0,37.5,16.8,37.5,37.5
	S687.4,637.5,666.7,637.5z"/>
<path class="st0" d="M666.7,437.5H133.3c-20.7,0-37.5-16.8-37.5-37.5c0-20.7,16.8-37.5,37.5-37.5h533.3c20.7,0,37.5,16.8,37.5,37.5
	C704.2,420.7,687.4,437.5,666.7,437.5z"/>
<path class="st0" d="M666.7,237.5H133.3c-20.7,0-37.5-16.8-37.5-37.5s16.8-37.5,37.5-37.5h533.3c20.7,0,37.5,16.8,37.5,37.5
	S687.4,237.5,666.7,237.5z"/>
</svg>
