<svg width="26" height="26" viewBox="0 0 26 26" fill="none" xmlns="http://www.w3.org/2000/svg">
<path opacity="0.8" d="M4.80676 0.0432181C5.47648 0.181633 6.00983 0.631598 6.34121 1.22609L7.39682 3.11989C7.78565 3.8174 8.11286 4.4044 8.32655 4.91467C8.55323 5.45596 8.68785 5.98974 8.62631 6.57989C8.56476 7.17004 8.32291 7.66456 7.98943 8.14744C7.67506 8.60265 7.23377 9.1095 6.70939 9.71179L5.15765 11.4942C4.8796 11.8136 4.74055 11.9732 4.72785 12.1728C4.71515 12.3725 4.8291 12.543 5.057 12.8839C6.99942 15.7902 9.61732 18.4089 12.5259 20.353C12.8669 20.581 13.0373 20.6949 13.237 20.6822C13.4366 20.6695 13.5963 20.5304 13.9157 20.2523L15.6982 18.7006C16.3005 18.1762 16.8073 17.735 17.2626 17.4206C17.7454 17.0871 18.2399 16.8452 18.83 16.7837C19.4202 16.7221 19.9541 16.8567 20.4953 17.0834C21.0055 17.2971 21.5925 17.6243 22.2899 18.013L24.1839 19.0688C24.7784 19.4001 25.2284 19.9335 25.3668 20.6032C25.5066 21.2799 25.3004 21.9601 24.8447 22.5192C23.1914 24.5475 20.5426 25.8392 17.7639 25.2786C16.0559 24.934 14.3707 24.36 12.3324 23.1911C8.23692 20.8423 4.56492 17.1683 2.21892 13.0776C1.04996 11.0394 0.47594 9.35409 0.131392 7.64605C-0.429144 4.86734 0.862383 2.21856 2.89082 0.565298C3.44986 0.10966 4.13005 -0.09665 4.80676 0.0432181Z" fill="#EC009D"/>
</svg>
