<svg width="21" height="26" viewBox="0 0 21 26" fill="none" xmlns="http://www.w3.org/2000/svg">
<path opacity="0.4" d="M5.05253 8.39148C6.74066 8.31388 8.45496 8.27344 10.3409 8.27344C12.2269 8.27344 13.9412 8.31388 15.6293 8.39149C18.0615 8.5033 20.0364 10.3868 20.3574 12.7705C20.5324 14.071 20.6818 15.4374 20.6818 16.8416C20.6818 18.2459 20.5324 19.6123 20.3574 20.9127C20.0364 23.2965 18.0615 25.1799 15.6293 25.2917C13.9412 25.3694 12.2269 25.4098 10.3409 25.4098C8.45496 25.4098 6.74066 25.3694 5.05253 25.2917C2.62028 25.1799 0.645379 23.2965 0.324433 20.9127C0.149334 19.6123 0 18.2459 0 16.8416C0 15.4374 0.149334 14.071 0.324433 12.7705C0.645379 10.3868 2.62028 8.5033 5.05253 8.39148Z" fill="#65F78D"/>
<path fill-rule="evenodd" clip-rule="evenodd" d="M6.20312 16.842C6.20312 16.1893 6.73225 15.6602 7.38494 15.6602H7.39554C8.0483 15.6602 8.5774 16.1893 8.5774 16.842C8.5774 17.4947 8.0483 18.0238 7.39554 18.0238H7.38494C6.73225 18.0238 6.20312 17.4947 6.20312 16.842ZM12.1016 16.842C12.1016 16.1893 12.6307 15.6602 13.2834 15.6602H13.294C13.9468 15.6602 14.4759 16.1893 14.4759 16.842C14.4759 17.4947 13.9468 18.0238 13.294 18.0238H13.2834C12.6307 18.0238 12.1016 17.4947 12.1016 16.842Z" fill="#65F78D"/>
<path d="M6.20348 6.5C6.20348 4.21555 8.05539 2.36364 10.3398 2.36364C12.6243 2.36364 14.4762 4.21555 14.4762 6.5V8.34382C14.8627 8.35755 15.2462 8.37321 15.6282 8.39077C16.0478 8.41005 16.4536 8.48205 16.8398 8.60023V6.5C16.8398 2.91014 13.9297 0 10.3398 0C6.74999 0 3.83984 2.91014 3.83984 6.5V8.60023C4.22601 8.48205 4.63193 8.41005 5.05147 8.39077C5.43357 8.37321 5.81701 8.35755 6.20348 8.34382V6.5Z" fill="#65F78D"/>
</svg>
