<svg width="25" height="26" viewBox="0 0 25 26" fill="none" xmlns="http://www.w3.org/2000/svg">
<path fill-rule="evenodd" clip-rule="evenodd" d="M7.3514 12.078C7.69756 11.7318 8.25877 11.7318 8.60491 12.078L9.15998 12.633L9.71504 12.078C10.0612 11.7318 10.6224 11.7318 10.9686 12.078C11.3147 12.4241 11.3147 12.9853 10.9686 13.3314L10.4135 13.8865L10.9686 14.4416C11.3147 14.7878 11.3147 15.3489 10.9686 15.695C10.6224 16.0412 10.0612 16.0412 9.71504 15.695L9.15998 15.1401L8.60491 15.695C8.25877 16.0412 7.69756 16.0412 7.3514 15.695C7.00526 15.3489 7.00526 14.7878 7.3514 14.4416L7.90647 13.8865L7.3514 13.3314C7.00526 12.9853 7.00526 12.4241 7.3514 12.078Z" fill="#78B8FA"/>
<path fill-rule="evenodd" clip-rule="evenodd" d="M1.44125 12.078C1.7874 11.7318 2.34861 11.7318 2.69475 12.078L3.24982 12.633L3.80488 12.078C4.15104 11.7318 4.71225 11.7318 5.05839 12.078C5.40455 12.4241 5.40455 12.9853 5.05839 13.3314L4.50333 13.8865L5.05839 14.4416C5.40455 14.7878 5.40455 15.3489 5.05839 15.695C4.71225 16.0412 4.15104 16.0412 3.80488 15.695L3.24982 15.1401L2.69475 15.695C2.34861 16.0412 1.7874 16.0412 1.44125 15.695C1.0951 15.3489 1.0951 14.7878 1.44125 14.4416L1.99631 13.8865L1.44125 13.3314C1.0951 12.9853 1.0951 12.4241 1.44125 12.078Z" fill="#78B8FA"/>
<path fill-rule="evenodd" clip-rule="evenodd" d="M13.2596 12.078C13.6058 11.7318 14.167 11.7318 14.5132 12.078L15.0683 12.633L15.6233 12.078C15.9694 11.7318 16.5307 11.7318 16.8768 12.078C17.223 12.4241 17.223 12.9853 16.8768 13.3314L16.3217 13.8865L16.8768 14.4416C17.223 14.7878 17.223 15.3489 16.8768 15.695C16.5307 16.0412 15.9694 16.0412 15.6233 15.695L15.0683 15.1401L14.5132 15.695C14.167 16.0412 13.6058 16.0412 13.2596 15.695C12.9135 15.3489 12.9135 14.7878 13.2596 14.4416L13.8147 13.8865L13.2596 13.3314C12.9135 12.9853 12.9135 12.4241 13.2596 12.078Z" fill="#78B8FA"/>
<path fill-rule="evenodd" clip-rule="evenodd" d="M19.1698 12.078C19.5159 11.7318 20.0772 11.7318 20.4233 12.078L20.9784 12.633L21.5334 12.078C21.8796 11.7318 22.4408 11.7318 22.787 12.078C23.1331 12.4241 23.1331 12.9853 22.787 13.3314L22.2319 13.8865L22.787 14.4416C23.1331 14.7878 23.1331 15.3489 22.787 15.695C22.4408 16.0412 21.8796 16.0412 21.5334 15.695L20.9784 15.1401L20.4233 15.695C20.0772 16.0412 19.5159 16.0412 19.1698 15.695C18.8236 15.3489 18.8236 14.7878 19.1698 14.4416L19.7249 13.8865L19.1698 13.3314C18.8236 12.9853 18.8236 12.4241 19.1698 12.078Z" fill="#78B8FA"/>
<g opacity="0.4">
<path d="M7.09889 1.4011C8.50777 0.671202 10.1231 0 12.1101 0C14.0971 0 15.7131 0.671214 17.1227 1.40109C17.5485 1.6216 17.9441 1.83972 18.3223 2.04819C19.2477 2.55838 20.068 3.01061 20.9685 3.29779C21.4972 3.46636 21.9653 3.61567 22.2974 3.74573C22.6098 3.86814 22.9812 4.0359 23.2447 4.32874C23.4815 4.5918 23.6032 4.88716 23.6838 5.16967C23.757 5.42612 23.8195 5.77336 23.8796 6.10645C24.095 7.30078 24.2095 8.48584 24.2231 9.64806C24.2269 9.96953 24.2288 10.1303 24.1247 10.2356C24.0206 10.3409 23.8558 10.3409 23.5263 10.3409H0.69802C0.368552 10.3409 0.203807 10.3409 0.0997244 10.2356C-0.00437013 10.1303 -0.00250292 9.96959 0.00123162 9.64815C0.0147043 8.48594 0.129045 7.30085 0.344396 6.10651C0.404409 5.77345 0.466974 5.42629 0.540164 5.16986C0.620788 4.88737 0.742385 4.59205 0.97908 4.32899C1.24259 4.03615 1.61398 3.86834 1.92646 3.74589C2.25847 3.61578 2.72674 3.46639 3.25534 3.29773C4.15538 3.01056 4.97494 2.55847 5.89966 2.04835C6.2776 1.83987 6.67314 1.62167 7.09889 1.4011Z" fill="#78B8FA"/>
<path d="M14.3355 24.8982C13.5675 25.1923 13.0021 25.4089 12.1145 25.4089C11.2268 25.4089 10.6613 25.1923 9.89335 24.8982C6.39132 23.5575 3.81626 21.273 2.17264 18.4296C1.92478 18.0007 1.80085 17.7863 1.90319 17.609C2.00552 17.4316 2.26165 17.4316 2.77394 17.4316H21.4532C21.9654 17.4316 22.2214 17.4316 22.3237 17.6089C22.4261 17.7863 22.3022 18.0007 22.0545 18.4294C20.4117 21.2729 17.8373 23.5574 14.3355 24.8982Z" fill="#78B8FA"/>
</g>
</svg>
