<svg width="24" height="26" viewBox="0 0 24 26" fill="none" xmlns="http://www.w3.org/2000/svg">
<path d="M18.3847 16.0575C18.5222 16.1392 18.692 16.2351 18.8843 16.3436C19.7267 16.8188 21.0001 17.5372 21.8725 18.3911C22.418 18.9251 22.9365 19.6289 23.0307 20.4912C23.1309 21.408 22.731 22.2685 21.9284 23.033C20.544 24.3519 18.8826 25.4089 16.7337 25.4089H6.31214C4.16324 25.4089 2.50185 24.3519 1.11741 23.033C0.314941 22.2685 -0.0850684 21.408 0.0151616 20.4912C0.1094 19.6289 0.627816 18.9251 1.17343 18.3911C2.0458 17.5372 3.31922 16.8188 4.16164 16.3436C4.35388 16.2352 4.52368 16.1392 4.66114 16.0575C8.86138 13.5564 14.1845 13.5564 18.3847 16.0575Z" fill="#4770FF"/>
<path opacity="0.4" d="M5.31836 6.20455C5.31836 2.77786 8.09622 0 11.5229 0C14.9496 0 17.7275 2.77786 17.7275 6.20455C17.7275 9.63122 14.9496 12.4091 11.5229 12.4091C8.09622 12.4091 5.31836 9.63122 5.31836 6.20455Z" fill="#4770FF"/>
</svg>
