<?xml version="1.0" encoding="utf-8"?>
<!-- Generator: Adobe Illustrator 23.0.3, SVG Export Plug-In . SVG Version: 6.00 Build 0)  -->
<svg version="1.1" id="Layer_1" xmlns="http://www.w3.org/2000/svg" xmlns:xlink="http://www.w3.org/1999/xlink" x="0px" y="0px"
	 viewBox="0 0 28 28" style="enable-background:new 0 0 28 28;" xml:space="preserve">
<style type="text/css">
	.st0{opacity:0.4;fill:#7950FF;enable-background:new    ;}
	.st1{fill:#7950FF;}
</style>
<path class="st0" d="M1.5,14c0,6.9,5.6,12.5,12.5,12.5c6.9,0,12.5-5.6,12.5-12.5c0-6.9-5.6-12.5-12.5-12.5C7.1,1.5,1.5,7.1,1.5,14z"
	/>
<path class="st1" d="M19.7,9.4c0.3,0.6,0.1,1.3-0.5,1.6c-1.6,0.9-3.1,2.7-4.2,4.5c-0.6,0.9-1,1.7-1.3,2.2c-0.2,0.3-0.3,0.5-0.4,0.7
	l-0.1,0.2c-0.2,0.4-0.6,0.7-1,0.7c-0.4,0-0.8-0.2-1.1-0.6c-0.4-0.6-0.9-1.2-1.5-1.6c-0.3-0.2-0.5-0.4-0.7-0.5l-0.2-0.2
	c-0.6-0.3-0.8-1-0.4-1.6c0.3-0.6,1-0.8,1.6-0.4l0.4,0.2c0.2,0.1,0.5,0.3,0.8,0.6c0.2,0.2,0.5,0.4,0.8,0.7c0.3-0.5,0.7-1.2,1.1-1.8
	c1.2-1.8,3-4.1,5.1-5.2C18.7,8.6,19.4,8.8,19.7,9.4z"/>
</svg>
